<svg id="visual" viewBox="0 0 900 600" width="900" height="600" xmlns="http://www.w3.org/2000/svg" xmlns:xlink="http://www.w3.org/1999/xlink" version="1.1"><rect x="0" y="0" width="900" height="600" fill="#000f1b"></rect><defs><linearGradient id="grad1_0" x1="33.3%" y1="0%" x2="100%" y2="100%"><stop offset="20%" stop-color="#000f1b" stop-opacity="1"></stop><stop offset="80%" stop-color="#000f1b" stop-opacity="1"></stop></linearGradient></defs><defs><linearGradient id="grad2_0" x1="0%" y1="0%" x2="66.7%" y2="100%"><stop offset="20%" stop-color="#000f1b" stop-opacity="1"></stop><stop offset="80%" stop-color="#000f1b" stop-opacity="1"></stop></linearGradient></defs><g transform="translate(900, 0)"><path d="M0 486.7C-52.6 445.1 -105.1 403.4 -155.8 376C-206.4 348.6 -255.1 335.5 -308.3 308.3C-361.5 281.1 -419.2 240 -449.7 186.3C-480.2 132.6 -483.5 66.3 -486.7 0L0 0Z" fill="#222991"></path></g><g transform="translate(0, 600)"><path d="M0 -486.7C67.2 -477.4 134.4 -468.1 179.1 -432.4C223.8 -396.7 246.1 -334.7 293.4 -293.4C340.8 -252.2 413.3 -231.7 449.7 -186.3C486.1 -140.8 486.4 -70.4 486.7 0L0 0Z" fill="#222991"></path></g></svg>